Coordinates
version=1
nRows=19
nColumns=63
inDegrees=yes

Units are S.I. units (second, meters, Newtons, ...)
If the header above contains a line with 'inDegrees', this indicates whether rotational values are in degrees (yes) or radians (no).

endheader
time	pelvis_tilt	pelvis_list	pelvis_rotation	pelvis_tx	pelvis_ty	pelvis_tz	hip_flexion_r	hip_adduction_r	hip_rotation_r	knee_angle_r	knee_angle_r_beta	ankle_angle_r	subtalar_angle_r	mtp_angle_r	hip_flexion_l	hip_adduction_l	hip_rotation_l	knee_angle_l	knee_angle_l_beta	ankle_angle_l	subtalar_angle_l	mtp_angle_l	L5_S1_Flex_Ext	L5_S1_Lat_Bending	L5_S1_axial_rotation	L4_L5_Flex_Ext	L4_L5_Lat_Bending	L4_L5_axial_rotation	L3_L4_Flex_Ext	L3_L4_Lat_Bending	L3_L4_axial_rotation	L2_L3_Flex_Ext	L2_L3_Lat_Bending	L2_L3_axial_rotation	L1_L2_Flex_Ext	L1_L2_Lat_Bending	L1_L2_axial_rotation	L1_T12_Flex_Ext	L1_T12_Lat_Bending	L1_T12_axial_rotation	Abs_r3	Abs_r2	Abs_r1	Abs_t1	Abs_t2	neck_flexion	neck_bending	neck_rotation	arm_flex_r	arm_add_r	arm_rot_r	elbow_flex_r	pro_sup_r	wrist_flex_r	wrist_dev_r	arm_flex_l	arm_add_l	arm_rot_l	elbow_flex_l	pro_sup_l	wrist_flex_l	wrist_dev_l
1.728814	-0.126382	-8.541571	99.712548	0.182698	0.771692	0.758724	5.321468	-0.820027	-16.662332	5.635163	0.098352	28.370203	10.655350	0.000000	9.008461	2.907294	15.155984	6.250938	0.109099	26.526557	-8.080471	0.000000	0.286472	0.099746	-0.395023	0.532007	0.132662	-0.419711	0.470645	0.242522	-0.419711	0.327409	0.242522	-0.345645	0.266018	0.203402	-0.320956	0.163690	0.154507	-0.296267	2.046242	1.128347	-2.196997	0.000000	0.000000	27.543410	-3.925223	-1.607556	5.733480	-22.063125	38.348566	25.935977	53.503179	6.484748	7.778381	6.514965	-15.273245	99.495008	8.591258	22.697093	11.130160	1.050139
1.745763	-0.173428	-8.666713	99.684460	0.183156	0.771295	0.759471	5.536367	-0.893107	-16.975214	5.761669	0.100560	28.452445	11.040730	0.000000	9.249581	2.959905	14.953966	6.452061	0.112610	26.259169	-7.971012	0.000000	0.282622	0.084922	-0.386309	0.524858	0.112946	-0.410453	0.464320	0.206480	-0.410453	0.323009	0.206480	-0.338020	0.262443	0.173173	-0.313876	0.161490	0.131544	-0.289732	2.018742	0.960656	-2.148533	0.000000	0.000000	27.540965	-3.659789	-1.636291	6.053421	-21.727791	38.579566	25.552408	53.476430	6.961853	7.143773	5.623799	-15.683340	88.996250	11.373493	30.992894	9.648910	2.843209
1.762712	-0.234506	-8.771950	99.707573	0.183559	0.770875	0.760034	5.724546	-0.983140	-17.378276	5.934982	0.103585	28.574815	11.474876	0.000000	9.435327	3.025519	14.902680	6.596656	0.115133	25.995723	-7.926618	0.000000	0.282308	0.067793	-0.398297	0.524274	0.090164	-0.423191	0.463804	0.164831	-0.423191	0.322650	0.164831	-0.348510	0.262151	0.138243	-0.323616	0.161311	0.105011	-0.298723	2.016498	0.766884	-2.215210	0.000000	0.000000	27.555902	-3.410970	-1.718084	6.540242	-21.349899	39.978242	24.907571	52.665158	7.589840	6.437113	4.562082	-16.108640	77.782189	14.263897	39.681697	7.981352	4.555410
1.779661	-0.301789	-8.857029	99.769259	0.183887	0.770420	0.760338	5.882925	-1.085222	-17.886536	6.152015	0.107373	28.753615	12.005387	0.000000	9.560614	3.096706	14.957862	6.689210	0.116749	25.755608	-7.915591	0.000000	0.287296	0.049807	-0.422381	0.533538	0.066243	-0.448779	0.471999	0.121100	-0.448779	0.328351	0.121100	-0.369583	0.266783	0.101566	-0.343184	0.164161	0.077150	-0.316785	2.052127	0.563422	-2.349154	0.000000	0.000000	27.591231	-3.218515	-1.883415	6.914936	-20.990194	40.786989	24.275147	52.433573	8.181418	6.017620	3.397357	-16.533388	66.287793	17.146968	48.476009	6.238836	6.140600
1.796610	-0.384921	-8.910488	99.859261	0.184155	0.769959	0.760371	6.003149	-1.206919	-18.438873	6.421618	0.112078	28.986348	12.548543	0.000000	9.608087	3.180250	15.128373	6.732576	0.117506	25.525885	-7.973060	0.000000	0.296346	0.029438	-0.456619	0.550344	0.039153	-0.485157	0.486867	0.071577	-0.485157	0.338694	0.071577	-0.399541	0.275187	0.060031	-0.371003	0.169332	0.045600	-0.342464	2.116771	0.333014	-2.539576	0.000000	0.000000	27.645525	-3.069805	-2.165508	7.302452	-20.651153	41.971493	23.601417	51.803791	8.758033	5.641751	2.163632	-16.965680	54.836782	19.979547	57.142964	4.507268	7.651256
1.813559	-0.480415	-8.929539	99.978061	0.184329	0.769501	0.760107	6.077925	-1.343466	-18.996369	6.735927	0.117564	29.268825	13.055050	0.000000	9.573710	3.275311	15.391867	6.730836	0.117475	25.318051	-8.102252	0.000000	0.310009	0.008074	-0.501770	0.575718	0.010738	-0.533131	0.509314	0.019631	-0.533131	0.354309	0.019631	-0.439049	0.287874	0.016464	-0.407688	0.177139	0.012507	-0.376328	2.214364	0.091335	-2.790695	0.000000	0.000000	27.716435	-2.951786	-2.477578	7.672239	-20.354055	43.402384	22.963131	50.817478	9.218099	5.295973	0.922449	-17.397828	43.886470	22.627120	65.419506	2.868090	8.989833
1.830508	-0.583288	-8.926935	100.113762	0.184415	0.769005	0.759516	6.120479	-1.495069	-19.545941	7.095251	0.123835	29.598545	13.513579	0.000000	9.485837	3.378767	15.670748	6.716772	0.117230	25.207187	-8.210507	0.000000	0.330230	-0.013983	-0.549030	0.613269	-0.018597	-0.583345	0.542534	-0.033998	-0.583345	0.377419	-0.033998	-0.480402	0.306651	-0.028514	-0.446087	0.188693	-0.021659	-0.411773	2.358797	-0.158176	-3.053542	0.000000	0.000000	27.799131	-2.884075	-2.837781	7.891231	-20.074955	44.482810	22.433091	49.982419	9.635609	5.097940	-0.348044	-17.772506	33.387247	25.115870	73.415554	1.407617	10.320403
1.847458	-0.696102	-8.879945	100.263365	0.184376	0.768544	0.758606	6.103870	-1.659456	-20.070703	7.491959	0.130759	29.957193	13.906539	0.000000	9.312187	3.489009	15.977917	6.668622	0.116389	25.173378	-8.352993	0.000000	0.352376	-0.035406	-0.596601	0.654398	-0.047090	-0.633888	0.578919	-0.086087	-0.633888	0.402731	-0.086087	-0.522026	0.327216	-0.072201	-0.484738	0.201348	-0.054844	-0.447450	2.516987	-0.400524	-3.318113	0.000000	0.000000	27.886495	-2.835387	-3.133047	8.023720	-19.851536	45.545332	21.998193	49.033115	9.946958	4.927042	-1.510219	-18.127343	24.145361	27.246654	80.541884	0.117563	11.414496
1.864407	-0.820900	-8.782413	100.416273	0.184186	0.768158	0.757354	6.020347	-1.832609	-20.498017	7.917569	0.138188	30.316826	14.132492	0.000000	9.033319	3.603415	16.324040	6.554020	0.114389	25.217261	-8.542370	0.000000	0.374111	-0.055413	-0.639244	0.694762	-0.073699	-0.679197	0.614627	-0.134731	-0.679197	0.427571	-0.134731	-0.559338	0.347399	-0.112998	-0.519386	0.213767	-0.085835	-0.479433	2.672237	-0.626842	-3.555283	0.000000	0.000000	27.968005	-2.790717	-3.314372	8.014348	-19.673639	46.249298	21.710649	48.444129	10.122249	4.829685	-2.449898	-18.446242	16.916081	28.798806	86.111767	-0.959648	12.020621
1.881356	-0.962427	-8.659208	100.594019	0.183857	0.767814	0.755752	5.887333	-2.028003	-20.880491	8.362292	0.145950	30.698552	14.262866	0.000000	8.697985	3.735725	16.685486	6.408181	0.111844	25.382763	-8.712266	0.000000	0.397957	-0.076154	-0.682521	0.739046	-0.101284	-0.725179	0.653803	-0.185160	-0.725179	0.454825	-0.185160	-0.597206	0.369543	-0.155292	-0.554549	0.227393	-0.117962	-0.511891	2.842567	-0.861464	-3.795979	0.000000	0.000000	28.042009	-2.758192	-3.393114	7.954038	-19.561334	47.052565	21.476472	47.754593	10.226958	4.778060	-3.512131	-18.793847	8.315337	30.278299	93.286575	-2.071048	12.731842
1.898305	-1.100763	-8.488037	100.761380	0.183349	0.767637	0.753867	5.695615	-2.214025	-21.112177	8.814406	0.153840	31.024641	14.189448	0.000000	8.278406	3.858070	17.079427	6.195251	0.108128	25.597447	-8.944148	0.000000	0.417918	-0.092708	-0.710265	0.776115	-0.123302	-0.754657	0.686597	-0.225411	-0.754657	0.477638	-0.225411	-0.621482	0.388079	-0.189051	-0.577090	0.238798	-0.143605	-0.532699	2.985145	-1.048734	-3.950281	0.000000	0.000000	28.092432	-2.724720	-3.321957	7.720105	-19.493158	47.284593	21.386437	47.637622	10.204638	4.794200	-4.067345	-19.011528	4.362929	30.692132	96.541731	-2.707361	12.537927
1.915254	-1.228356	-8.293677	100.917325	0.182621	0.767600	0.751718	5.469400	-2.396818	-21.245075	9.261135	0.161637	31.310151	13.992954	0.000000	7.815679	3.971968	17.462059	5.936605	0.103613	25.906839	-9.129030	0.000000	0.437222	-0.104229	-0.720306	0.811965	-0.138625	-0.765325	0.718312	-0.253423	-0.765325	0.499701	-0.253423	-0.630268	0.406004	-0.212544	-0.585249	0.249829	-0.161451	-0.540230	3.123034	-1.179063	-4.006127	0.000000	0.000000	28.120167	-2.759889	-3.151032	7.365150	-19.531967	47.214719	21.403114	47.979537	10.161027	4.876056	-4.097150	-19.101755	5.142528	30.042178	95.864816	-2.750888	11.544749
1.932203	-1.342315	-8.067751	101.088584	0.181674	0.767756	0.749347	5.202407	-2.561240	-21.236470	9.695859	0.169225	31.512286	13.570935	0.000000	7.305911	4.071646	17.893821	5.636688	0.098379	26.204361	-9.361520	0.000000	0.452757	-0.111096	-0.720980	0.840815	-0.147758	-0.766041	0.743835	-0.270119	-0.766041	0.517456	-0.270119	-0.630857	0.420430	-0.226547	-0.585796	0.258705	-0.172088	-0.540735	3.233999	-1.256742	-4.009872	0.000000	0.000000	28.121343	-2.793184	-2.883848	6.892057	-19.620369	46.651319	21.478878	48.926901	10.104679	4.961133	-3.628679	-19.051553	10.701166	28.268938	91.153915	-2.212389	9.565286
1.949153	-1.429774	-7.804300	101.266412	0.180524	0.768125	0.746803	4.889942	-2.696859	-21.203211	10.108566	0.176428	31.638571	13.100085	0.000000	6.750114	4.138095	18.303844	5.308325	0.092648	26.491012	-9.559326	0.000000	0.462514	-0.111803	-0.712247	0.858935	-0.148698	-0.756762	0.759865	-0.271837	-0.756762	0.528608	-0.271837	-0.623216	0.429491	-0.227988	-0.578701	0.264281	-0.173182	-0.534185	3.303694	-1.264734	-3.961304	0.000000	0.000000	28.101888	-2.840936	-2.553732	6.307399	-19.784968	45.643109	21.673273	50.295168	9.915158	5.082240	-2.658092	-18.840760	21.064398	25.338579	82.357544	-1.072569	6.635615
1.966102	-1.547272	-7.526882	101.461346	0.179411	0.768556	0.744050	4.538919	-2.841172	-21.037473	10.482850	0.182960	31.735071	12.438252	0.000000	6.157076	4.222162	18.761779	4.950733	0.086407	26.714822	-9.822111	0.000000	0.467292	-0.118406	-0.718125	0.867809	-0.157479	-0.763008	0.767715	-0.287891	-0.763008	0.534068	-0.287891	-0.628359	0.433928	-0.241453	-0.583476	0.267011	-0.183410	-0.538594	3.337823	-1.339428	-3.993994	0.000000	0.000000	28.093779	-2.726100	-2.168170	5.689702	-19.913823	44.277077	21.934094	51.973564	9.564286	5.207040	-2.221113	-18.909168	26.859623	23.711651	76.827321	-0.596075	4.529199
1.983051	-1.648817	-7.229734	101.669099	0.178203	0.769146	0.741225	4.157102	-2.961146	-20.848383	10.819016	0.188827	31.766818	11.732703	0.000000	5.546054	4.286424	19.223119	4.591766	0.080141	26.864586	-10.111188	0.000000	0.467003	-0.122461	-0.730319	0.867272	-0.162873	-0.775964	0.767240	-0.297752	-0.775964	0.533738	-0.297752	-0.639029	0.433659	-0.249723	-0.593384	0.266846	-0.189692	-0.547739	3.335759	-1.385306	-4.061816	0.000000	0.000000	28.074544	-2.578519	-1.731549	5.020013	-20.071230	42.549123	22.307125	53.789293	9.011334	5.342238	-1.737419	-18.984848	33.445052	21.977903	70.064968	-0.010352	2.194426
2.000000	-1.737251	-6.914813	101.873281	0.176977	0.769891	0.738428	3.755499	-3.055388	-20.589725	11.121286	0.194103	31.733906	10.946935	0.000000	4.929896	4.326696	19.595592	4.247852	0.074139	26.951260	-10.328964	0.000000	0.460679	-0.124232	-0.755688	0.855527	-0.165229	-0.802918	0.756850	-0.302059	-0.802918	0.526510	-0.302059	-0.661227	0.427787	-0.253335	-0.613996	0.263232	-0.192436	-0.566766	3.290585	-1.405342	-4.202909	0.000000	0.000000	28.035831	-2.330747	-1.127608	4.346152	-20.236143	40.441871	22.791749	55.787281	8.276507	5.584933	-1.272235	-19.079124	40.255482	20.193377	62.025626	0.682304	-0.533872
2.016949	-1.807576	-6.593177	102.061363	0.175781	0.770791	0.735729	3.334138	-3.115452	-20.272891	11.353384	0.198154	31.618344	10.132163	0.000000	4.327867	4.342499	19.885567	3.930449	0.068599	26.959656	-10.513374	0.000000	0.449987	-0.123367	-0.791563	0.835671	-0.164078	-0.841036	0.739283	-0.299954	-0.841036	0.514290	-0.299954	-0.692618	0.417858	-0.251570	-0.643145	0.257122	-0.191095	-0.593673	3.214211	-1.395550	-4.402438	0.000000	0.000000	27.959918	-2.016973	-0.386164	3.677466	-20.410246	38.002939	23.390636	57.868688	7.345643	5.946691	-0.774946	-19.185432	47.670490	18.328425	53.502125	1.091438	-3.424847
2.033898	-1.864341	-6.278686	102.235755	0.174654	0.771834	0.733222	2.923238	-3.156196	-19.950866	11.544539	0.201490	31.452642	9.337233	0.000000	3.751019	4.340647	20.103346	3.625828	0.063283	26.892359	-10.650874	0.000000	0.436603	-0.121381	-0.840148	0.810816	-0.161437	-0.892657	0.717296	-0.295127	-0.892657	0.498994	-0.295127	-0.735129	0.405430	-0.247521	-0.682620	0.249475	-0.188020	-0.630111	3.118614	-1.373091	-4.672651	0.000000	0.000000	27.824967	-1.691038	0.374889	3.070669	-20.568039	35.361179	24.030192	59.996988	6.275547	6.480821	-0.226141	-19.252310	56.127139	16.358413	45.512971	0.987975	-6.023724
